M48
; DRILL file {KiCad (5.1.7)-1} date 03/16/23 12:52:07
; FORMAT={-:-/ absolute / inch / decimal}
; #@! TF.CreationDate,2023-03-16T12:52:07-07:00
; #@! TF.GenerationSoftware,Kicad,Pcbnew,(5.1.7)-1
FMAT,2
INCH
T1C0.0394
%
G90
G05
T1
X6.0Y-4.1732
X6.1Y-4.1732
X6.2Y-4.1732
X6.3Y-4.1732
X6.4Y-4.1732
X6.5Y-4.1732
X6.6Y-4.1732
X6.7Y-4.1732
X6.8Y-4.1732
X6.9Y-4.1732
X7.0Y-4.1732
X7.1Y-4.1732
X7.2Y-4.1732
X7.3Y-4.1732
X7.4Y-4.1732
X7.5Y-4.1732
X7.6Y-4.1732
X7.7Y-4.1732
X7.8Y-4.1732
X7.9Y-4.1732
X8.0Y-4.1732
X8.1Y-4.1732
X8.2Y-4.1732
X8.3Y-4.1732
X8.4Y-4.1732
X6.0Y-3.622
X6.1Y-3.622
X6.2Y-3.622
X6.3Y-3.622
X6.4Y-3.622
X6.5Y-3.622
X6.6Y-3.622
X6.7Y-3.622
X6.8Y-3.622
X6.9Y-3.622
X7.0Y-3.622
X7.1Y-3.622
X7.2Y-3.622
X7.3Y-3.622
X7.4Y-3.622
X7.5Y-3.622
X7.6Y-3.622
X7.7Y-3.622
X7.8Y-3.622
X7.9Y-3.622
X8.0Y-3.622
X8.1Y-3.622
X8.2Y-3.622
X8.3Y-3.622
X8.4Y-3.622
T0
M30
