%TF.GenerationSoftware,KiCad,Pcbnew,(5.1.7)-1*%
%TF.CreationDate,2023-03-16T12:51:53-07:00*%
%TF.ProjectId,smsQSB,736d7351-5342-42e6-9b69-6361645f7063,rev?*%
%TF.SameCoordinates,Original*%
%TF.FileFunction,Copper,L1,Top*%
%TF.FilePolarity,Positive*%
%FSLAX46Y46*%
G04 Gerber Fmt 4.6, Leading zero omitted, Abs format (unit mm)*
G04 Created by KiCad (PCBNEW (5.1.7)-1) date 2023-03-16 12:51:53*
%MOMM*%
%LPD*%
G01*
G04 APERTURE LIST*
%TA.AperFunction,ComponentPad*%
%ADD10C,1.750000*%
%TD*%
%TA.AperFunction,Conductor*%
%ADD11C,0.250000*%
%TD*%
G04 APERTURE END LIST*
D10*
%TO.P,J2,25*%
%TO.N,Net-(J1-Pad25)*%
X213360000Y-106000000D03*
%TO.P,J2,24*%
%TO.N,Net-(J1-Pad24)*%
X210820000Y-106000000D03*
%TO.P,J2,23*%
%TO.N,Net-(J1-Pad23)*%
X208280000Y-106000000D03*
%TO.P,J2,22*%
%TO.N,Net-(J1-Pad22)*%
X205740000Y-106000000D03*
%TO.P,J2,21*%
%TO.N,Net-(J1-Pad21)*%
X203200000Y-106000000D03*
%TO.P,J2,20*%
%TO.N,Net-(J1-Pad20)*%
X200660000Y-106000000D03*
%TO.P,J2,19*%
%TO.N,Net-(J1-Pad19)*%
X198120000Y-106000000D03*
%TO.P,J2,18*%
%TO.N,Net-(J1-Pad18)*%
X195580000Y-106000000D03*
%TO.P,J2,17*%
%TO.N,Net-(J1-Pad17)*%
X193040000Y-106000000D03*
%TO.P,J2,16*%
%TO.N,Net-(J1-Pad16)*%
X190500000Y-106000000D03*
%TO.P,J2,15*%
%TO.N,Net-(J1-Pad15)*%
X187960000Y-106000000D03*
%TO.P,J2,14*%
%TO.N,Net-(J1-Pad14)*%
X185420000Y-106000000D03*
%TO.P,J2,13*%
%TO.N,Net-(J1-Pad13)*%
X182880000Y-106000000D03*
%TO.P,J2,12*%
%TO.N,Net-(J1-Pad12)*%
X180340000Y-106000000D03*
%TO.P,J2,11*%
%TO.N,Net-(J1-Pad11)*%
X177800000Y-106000000D03*
%TO.P,J2,10*%
%TO.N,Net-(J1-Pad10)*%
X175260000Y-106000000D03*
%TO.P,J2,9*%
%TO.N,Net-(J1-Pad9)*%
X172720000Y-106000000D03*
%TO.P,J2,8*%
%TO.N,Net-(J1-Pad8)*%
X170180000Y-106000000D03*
%TO.P,J2,7*%
%TO.N,Net-(J1-Pad7)*%
X167640000Y-106000000D03*
%TO.P,J2,6*%
%TO.N,Net-(J1-Pad6)*%
X165100000Y-106000000D03*
%TO.P,J2,5*%
%TO.N,Net-(J1-Pad5)*%
X162560000Y-106000000D03*
%TO.P,J2,4*%
%TO.N,Net-(J1-Pad4)*%
X160020000Y-106000000D03*
%TO.P,J2,3*%
%TO.N,Net-(J1-Pad3)*%
X157480000Y-106000000D03*
%TO.P,J2,2*%
%TO.N,Net-(J1-Pad2)*%
X154940000Y-106000000D03*
%TO.P,J2,1*%
%TO.N,Net-(J1-Pad1)*%
X152400000Y-106000000D03*
%TD*%
%TO.P,J1,25*%
%TO.N,Net-(J1-Pad25)*%
X213360000Y-92000000D03*
%TO.P,J1,24*%
%TO.N,Net-(J1-Pad24)*%
X210820000Y-92000000D03*
%TO.P,J1,23*%
%TO.N,Net-(J1-Pad23)*%
X208280000Y-92000000D03*
%TO.P,J1,22*%
%TO.N,Net-(J1-Pad22)*%
X205740000Y-92000000D03*
%TO.P,J1,21*%
%TO.N,Net-(J1-Pad21)*%
X203200000Y-92000000D03*
%TO.P,J1,20*%
%TO.N,Net-(J1-Pad20)*%
X200660000Y-92000000D03*
%TO.P,J1,19*%
%TO.N,Net-(J1-Pad19)*%
X198120000Y-92000000D03*
%TO.P,J1,18*%
%TO.N,Net-(J1-Pad18)*%
X195580000Y-92000000D03*
%TO.P,J1,17*%
%TO.N,Net-(J1-Pad17)*%
X193040000Y-92000000D03*
%TO.P,J1,16*%
%TO.N,Net-(J1-Pad16)*%
X190500000Y-92000000D03*
%TO.P,J1,15*%
%TO.N,Net-(J1-Pad15)*%
X187960000Y-92000000D03*
%TO.P,J1,14*%
%TO.N,Net-(J1-Pad14)*%
X185420000Y-92000000D03*
%TO.P,J1,13*%
%TO.N,Net-(J1-Pad13)*%
X182880000Y-92000000D03*
%TO.P,J1,12*%
%TO.N,Net-(J1-Pad12)*%
X180340000Y-92000000D03*
%TO.P,J1,11*%
%TO.N,Net-(J1-Pad11)*%
X177800000Y-92000000D03*
%TO.P,J1,10*%
%TO.N,Net-(J1-Pad10)*%
X175260000Y-92000000D03*
%TO.P,J1,9*%
%TO.N,Net-(J1-Pad9)*%
X172720000Y-92000000D03*
%TO.P,J1,8*%
%TO.N,Net-(J1-Pad8)*%
X170180000Y-92000000D03*
%TO.P,J1,7*%
%TO.N,Net-(J1-Pad7)*%
X167640000Y-92000000D03*
%TO.P,J1,6*%
%TO.N,Net-(J1-Pad6)*%
X165100000Y-92000000D03*
%TO.P,J1,5*%
%TO.N,Net-(J1-Pad5)*%
X162560000Y-92000000D03*
%TO.P,J1,4*%
%TO.N,Net-(J1-Pad4)*%
X160020000Y-92000000D03*
%TO.P,J1,3*%
%TO.N,Net-(J1-Pad3)*%
X157480000Y-92000000D03*
%TO.P,J1,2*%
%TO.N,Net-(J1-Pad2)*%
X154940000Y-92000000D03*
%TO.P,J1,1*%
%TO.N,Net-(J1-Pad1)*%
X152400000Y-92000000D03*
%TD*%
D11*
%TO.N,Net-(J1-Pad25)*%
X213360000Y-92000000D02*
X213360000Y-106000000D01*
%TO.N,Net-(J1-Pad24)*%
X210820000Y-92000000D02*
X210820000Y-106000000D01*
%TO.N,Net-(J1-Pad23)*%
X208280000Y-92000000D02*
X208280000Y-106000000D01*
%TO.N,Net-(J1-Pad22)*%
X205740000Y-92000000D02*
X205740000Y-106000000D01*
%TO.N,Net-(J1-Pad21)*%
X203200000Y-92000000D02*
X203200000Y-106000000D01*
%TO.N,Net-(J1-Pad20)*%
X200660000Y-92000000D02*
X200660000Y-106000000D01*
%TO.N,Net-(J1-Pad19)*%
X198120000Y-92000000D02*
X198120000Y-106000000D01*
%TO.N,Net-(J1-Pad18)*%
X195580000Y-92000000D02*
X195580000Y-106000000D01*
%TO.N,Net-(J1-Pad17)*%
X193040000Y-92000000D02*
X193040000Y-106000000D01*
%TO.N,Net-(J1-Pad16)*%
X190500000Y-92000000D02*
X190500000Y-106000000D01*
%TO.N,Net-(J1-Pad15)*%
X187960000Y-92000000D02*
X187960000Y-106000000D01*
%TO.N,Net-(J1-Pad14)*%
X185420000Y-92000000D02*
X185420000Y-106000000D01*
%TO.N,Net-(J1-Pad13)*%
X182880000Y-92000000D02*
X182880000Y-106000000D01*
%TO.N,Net-(J1-Pad12)*%
X180340000Y-92000000D02*
X180340000Y-106000000D01*
%TO.N,Net-(J1-Pad11)*%
X177800000Y-92000000D02*
X177800000Y-106000000D01*
%TO.N,Net-(J1-Pad10)*%
X175260000Y-92000000D02*
X175260000Y-106000000D01*
%TO.N,Net-(J1-Pad9)*%
X172720000Y-92000000D02*
X172720000Y-106000000D01*
%TO.N,Net-(J1-Pad8)*%
X170180000Y-92000000D02*
X170180000Y-106000000D01*
%TO.N,Net-(J1-Pad7)*%
X167640000Y-92000000D02*
X167640000Y-106000000D01*
%TO.N,Net-(J1-Pad6)*%
X165100000Y-92000000D02*
X165100000Y-106000000D01*
%TO.N,Net-(J1-Pad5)*%
X162560000Y-92000000D02*
X162560000Y-106000000D01*
%TO.N,Net-(J1-Pad4)*%
X160020000Y-92000000D02*
X160020000Y-106000000D01*
%TO.N,Net-(J1-Pad3)*%
X157480000Y-92000000D02*
X157480000Y-106000000D01*
%TO.N,Net-(J1-Pad2)*%
X154940000Y-92000000D02*
X154940000Y-106000000D01*
%TO.N,Net-(J1-Pad1)*%
X152400000Y-92000000D02*
X152400000Y-106000000D01*
%TD*%
M02*
