G04 #@! TF.GenerationSoftware,KiCad,Pcbnew,(5.1.7)-1*
G04 #@! TF.CreationDate,2023-02-17T11:25:34-08:00*
G04 #@! TF.ProjectId,sms2mk3,736d7332-6d6b-4332-9e6b-696361645f70,rev?*
G04 #@! TF.SameCoordinates,Original*
G04 #@! TF.FileFunction,Legend,Top*
G04 #@! TF.FilePolarity,Positive*
%FSLAX46Y46*%
G04 Gerber Fmt 4.6, Leading zero omitted, Abs format (unit mm)*
G04 Created by KiCad (PCBNEW (5.1.7)-1) date 2023-02-17 11:25:34*
%MOMM*%
%LPD*%
G01*
G04 APERTURE LIST*
%ADD10C,0.150000*%
%ADD11C,0.152400*%
%ADD12C,0.300000*%
G04 APERTURE END LIST*
D10*
X206889047Y-106378571D02*
X207031904Y-106426190D01*
X207079523Y-106473809D01*
X207127142Y-106569047D01*
X207127142Y-106711904D01*
X207079523Y-106807142D01*
X207031904Y-106854761D01*
X206936666Y-106902380D01*
X206555714Y-106902380D01*
X206555714Y-105902380D01*
X206889047Y-105902380D01*
X206984285Y-105950000D01*
X207031904Y-105997619D01*
X207079523Y-106092857D01*
X207079523Y-106188095D01*
X207031904Y-106283333D01*
X206984285Y-106330952D01*
X206889047Y-106378571D01*
X206555714Y-106378571D01*
X207508095Y-105997619D02*
X207555714Y-105950000D01*
X207650952Y-105902380D01*
X207889047Y-105902380D01*
X207984285Y-105950000D01*
X208031904Y-105997619D01*
X208079523Y-106092857D01*
X208079523Y-106188095D01*
X208031904Y-106330952D01*
X207460476Y-106902380D01*
X208079523Y-106902380D01*
X208460476Y-105997619D02*
X208508095Y-105950000D01*
X208603333Y-105902380D01*
X208841428Y-105902380D01*
X208936666Y-105950000D01*
X208984285Y-105997619D01*
X209031904Y-106092857D01*
X209031904Y-106188095D01*
X208984285Y-106330952D01*
X208412857Y-106902380D01*
X209031904Y-106902380D01*
X140295238Y-106238571D02*
X140438095Y-106286190D01*
X140485714Y-106333809D01*
X140533333Y-106429047D01*
X140533333Y-106571904D01*
X140485714Y-106667142D01*
X140438095Y-106714761D01*
X140342857Y-106762380D01*
X139961904Y-106762380D01*
X139961904Y-105762380D01*
X140295238Y-105762380D01*
X140390476Y-105810000D01*
X140438095Y-105857619D01*
X140485714Y-105952857D01*
X140485714Y-106048095D01*
X140438095Y-106143333D01*
X140390476Y-106190952D01*
X140295238Y-106238571D01*
X139961904Y-106238571D01*
X141485714Y-106762380D02*
X140914285Y-106762380D01*
X141200000Y-106762380D02*
X141200000Y-105762380D01*
X141104761Y-105905238D01*
X141009523Y-106000476D01*
X140914285Y-106048095D01*
D11*
X204639714Y-93772285D02*
X204639714Y-94449619D01*
X204397809Y-93385238D02*
X204155904Y-94110952D01*
X204784857Y-94110952D01*
X205220285Y-94449619D02*
X205413809Y-94449619D01*
X205510571Y-94401238D01*
X205558952Y-94352857D01*
X205655714Y-94207714D01*
X205704095Y-94014190D01*
X205704095Y-93627142D01*
X205655714Y-93530380D01*
X205607333Y-93482000D01*
X205510571Y-93433619D01*
X205317047Y-93433619D01*
X205220285Y-93482000D01*
X205171904Y-93530380D01*
X205123523Y-93627142D01*
X205123523Y-93869047D01*
X205171904Y-93965809D01*
X205220285Y-94014190D01*
X205317047Y-94062571D01*
X205510571Y-94062571D01*
X205607333Y-94014190D01*
X205655714Y-93965809D01*
X205704095Y-93869047D01*
X143660285Y-94409619D02*
X143079714Y-94409619D01*
X143370000Y-94409619D02*
X143370000Y-93393619D01*
X143273238Y-93538761D01*
X143176476Y-93635523D01*
X143079714Y-93683904D01*
D12*
X148190000Y-94498571D02*
X148190000Y-95712857D01*
X148261428Y-95855714D01*
X148332857Y-95927142D01*
X148475714Y-95998571D01*
X148761428Y-95998571D01*
X148904285Y-95927142D01*
X148975714Y-95855714D01*
X149047142Y-95712857D01*
X149047142Y-94498571D01*
X149690000Y-95927142D02*
X149904285Y-95998571D01*
X150261428Y-95998571D01*
X150404285Y-95927142D01*
X150475714Y-95855714D01*
X150547142Y-95712857D01*
X150547142Y-95570000D01*
X150475714Y-95427142D01*
X150404285Y-95355714D01*
X150261428Y-95284285D01*
X149975714Y-95212857D01*
X149832857Y-95141428D01*
X149761428Y-95070000D01*
X149690000Y-94927142D01*
X149690000Y-94784285D01*
X149761428Y-94641428D01*
X149832857Y-94570000D01*
X149975714Y-94498571D01*
X150332857Y-94498571D01*
X150547142Y-94570000D01*
X151118571Y-95570000D02*
X151832857Y-95570000D01*
X150975714Y-95998571D02*
X151475714Y-94498571D01*
X151975714Y-95998571D01*
X154118571Y-95212857D02*
X154332857Y-95284285D01*
X154404285Y-95355714D01*
X154475714Y-95498571D01*
X154475714Y-95712857D01*
X154404285Y-95855714D01*
X154332857Y-95927142D01*
X154190000Y-95998571D01*
X153618571Y-95998571D01*
X153618571Y-94498571D01*
X154118571Y-94498571D01*
X154261428Y-94570000D01*
X154332857Y-94641428D01*
X154404285Y-94784285D01*
X154404285Y-94927142D01*
X154332857Y-95070000D01*
X154261428Y-95141428D01*
X154118571Y-95212857D01*
X153618571Y-95212857D01*
X155047142Y-95570000D02*
X155761428Y-95570000D01*
X154904285Y-95998571D02*
X155404285Y-94498571D01*
X155904285Y-95998571D01*
X157261428Y-95855714D02*
X157190000Y-95927142D01*
X156975714Y-95998571D01*
X156832857Y-95998571D01*
X156618571Y-95927142D01*
X156475714Y-95784285D01*
X156404285Y-95641428D01*
X156332857Y-95355714D01*
X156332857Y-95141428D01*
X156404285Y-94855714D01*
X156475714Y-94712857D01*
X156618571Y-94570000D01*
X156832857Y-94498571D01*
X156975714Y-94498571D01*
X157190000Y-94570000D01*
X157261428Y-94641428D01*
X157904285Y-95998571D02*
X157904285Y-94498571D01*
X158761428Y-95998571D02*
X158118571Y-95141428D01*
X158761428Y-94498571D02*
X157904285Y-95355714D01*
X171887142Y-104628571D02*
X171887142Y-105700000D01*
X171815714Y-105914285D01*
X171672857Y-106057142D01*
X171458571Y-106128571D01*
X171315714Y-106128571D01*
X172601428Y-106128571D02*
X172601428Y-104628571D01*
X173172857Y-104628571D01*
X173315714Y-104700000D01*
X173387142Y-104771428D01*
X173458571Y-104914285D01*
X173458571Y-105128571D01*
X173387142Y-105271428D01*
X173315714Y-105342857D01*
X173172857Y-105414285D01*
X172601428Y-105414285D01*
X175744285Y-105342857D02*
X175244285Y-105342857D01*
X175244285Y-106128571D02*
X175244285Y-104628571D01*
X175958571Y-104628571D01*
X177387142Y-106128571D02*
X176887142Y-105414285D01*
X176530000Y-106128571D02*
X176530000Y-104628571D01*
X177101428Y-104628571D01*
X177244285Y-104700000D01*
X177315714Y-104771428D01*
X177387142Y-104914285D01*
X177387142Y-105128571D01*
X177315714Y-105271428D01*
X177244285Y-105342857D01*
X177101428Y-105414285D01*
X176530000Y-105414285D01*
X178315714Y-104628571D02*
X178601428Y-104628571D01*
X178744285Y-104700000D01*
X178887142Y-104842857D01*
X178958571Y-105128571D01*
X178958571Y-105628571D01*
X178887142Y-105914285D01*
X178744285Y-106057142D01*
X178601428Y-106128571D01*
X178315714Y-106128571D01*
X178172857Y-106057142D01*
X178030000Y-105914285D01*
X177958571Y-105628571D01*
X177958571Y-105128571D01*
X178030000Y-104842857D01*
X178172857Y-104700000D01*
X178315714Y-104628571D01*
X179601428Y-106128571D02*
X179601428Y-104628571D01*
X180458571Y-106128571D01*
X180458571Y-104628571D01*
X180958571Y-104628571D02*
X181815714Y-104628571D01*
X181387142Y-106128571D02*
X181387142Y-104628571D01*
M02*
