G04 #@! TF.GenerationSoftware,KiCad,Pcbnew,(5.1.7)-1*
G04 #@! TF.CreationDate,2023-02-17T11:25:34-08:00*
G04 #@! TF.ProjectId,sms2mk3,736d7332-6d6b-4332-9e6b-696361645f70,rev?*
G04 #@! TF.SameCoordinates,Original*
G04 #@! TF.FileFunction,Copper,L2,Bot*
G04 #@! TF.FilePolarity,Positive*
%FSLAX46Y46*%
G04 Gerber Fmt 4.6, Leading zero omitted, Abs format (unit mm)*
G04 Created by KiCad (PCBNEW (5.1.7)-1) date 2023-02-17 11:25:34*
%MOMM*%
%LPD*%
G01*
G04 APERTURE LIST*
G04 #@! TA.AperFunction,SMDPad,CuDef*
%ADD10R,1.750000X5.000000*%
G04 #@! TD*
G04 #@! TA.AperFunction,SMDPad,CuDef*
%ADD11R,2.000000X9.200000*%
G04 #@! TD*
G04 #@! TA.AperFunction,ViaPad*
%ADD12C,0.381000*%
G04 #@! TD*
G04 #@! TA.AperFunction,Conductor*
%ADD13C,0.152400*%
G04 #@! TD*
G04 APERTURE END LIST*
D10*
X204735000Y-90180000D03*
X202195000Y-90180000D03*
X199655000Y-90180000D03*
X197115000Y-90180000D03*
X194575000Y-90180000D03*
X192035000Y-90180000D03*
X189495000Y-90180000D03*
X186955000Y-90180000D03*
X184415000Y-90180000D03*
X181875000Y-90180000D03*
X179335000Y-90180000D03*
X176795000Y-90180000D03*
X174255000Y-90180000D03*
X171715000Y-90180000D03*
X169175000Y-90180000D03*
X166635000Y-90180000D03*
X164095000Y-90180000D03*
X161555000Y-90180000D03*
X159015000Y-90180000D03*
X156475000Y-90180000D03*
X153935000Y-90180000D03*
X151395000Y-90180000D03*
X148855000Y-90180000D03*
X146315000Y-90180000D03*
X143775000Y-90180000D03*
D11*
X207850000Y-112650000D03*
X204650000Y-112650000D03*
X201450000Y-112650000D03*
X198250000Y-112650000D03*
X195050000Y-112650000D03*
X191850000Y-112650000D03*
X188650000Y-112650000D03*
X185450000Y-112650000D03*
X182250000Y-112650000D03*
X179050000Y-112650000D03*
X175850000Y-112650000D03*
X172650000Y-112650000D03*
X169450000Y-112650000D03*
X166250000Y-112650000D03*
X163050000Y-112650000D03*
X159850000Y-112650000D03*
X156650000Y-112650000D03*
X153450000Y-112650000D03*
X150250000Y-112650000D03*
X147050000Y-112650000D03*
X143850000Y-112650000D03*
X140650000Y-112650000D03*
D12*
X165901400Y-98214300D03*
X194883500Y-98812900D03*
X185155800Y-95413600D03*
X167503800Y-98522400D03*
X194591700Y-101487000D03*
X184224600Y-94948100D03*
X168106700Y-98823700D03*
X192287000Y-104692700D03*
X171433400Y-94726700D03*
X183784800Y-95263300D03*
X182083400Y-94082700D03*
X171819800Y-95146100D03*
X180757000Y-95434900D03*
X179481000Y-97720200D03*
X182536200Y-93344200D03*
X163035800Y-101744900D03*
X175017000Y-107657300D03*
X165174400Y-101655600D03*
X170523500Y-106310300D03*
X174003600Y-97271100D03*
X161598500Y-103334100D03*
X165374300Y-105963600D03*
X180293700Y-93028400D03*
X178101600Y-92908900D03*
X175513500Y-92908900D03*
X173109600Y-92908900D03*
X185067000Y-94512200D03*
X202931700Y-107492500D03*
X166805000Y-93029300D03*
X190780000Y-97050000D03*
X189630000Y-94800000D03*
X186106400Y-94973500D03*
X196482600Y-101302800D03*
X159451900Y-101566800D03*
X173444000Y-107698200D03*
X159481100Y-94565300D03*
X164013200Y-102929100D03*
X174500000Y-99500000D03*
X185060000Y-99510000D03*
X184990000Y-97840000D03*
X170290000Y-101898400D03*
X147364800Y-103400100D03*
X148009300Y-104472100D03*
X148855000Y-93328400D03*
X147979300Y-105115200D03*
X192390900Y-98382500D03*
D13*
X207850000Y-107821100D02*
X198841800Y-98812900D01*
X198841800Y-98812900D02*
X194883500Y-98812900D01*
X159015000Y-92908900D02*
X160596000Y-92908900D01*
X160596000Y-92908900D02*
X165901400Y-98214300D01*
X159015000Y-90180000D02*
X159015000Y-92908900D01*
X207850000Y-112650000D02*
X207850000Y-107821100D01*
X204650000Y-112650000D02*
X204650000Y-107821100D01*
X204650000Y-107821100D02*
X203530300Y-107821100D01*
X203530300Y-107821100D02*
X203421100Y-107930300D01*
X203421100Y-107930300D02*
X202657400Y-107930300D01*
X202657400Y-107930300D02*
X202219600Y-107492500D01*
X202219600Y-107492500D02*
X201622100Y-107492500D01*
X201622100Y-107492500D02*
X195197200Y-101067600D01*
X195197200Y-101067600D02*
X190809800Y-101067600D01*
X190809800Y-101067600D02*
X185155800Y-95413600D01*
X201450000Y-107821100D02*
X200925800Y-107821100D01*
X200925800Y-107821100D02*
X194591700Y-101487000D01*
X161555000Y-92908900D02*
X161890300Y-92908900D01*
X161890300Y-92908900D02*
X167503800Y-98522400D01*
X161555000Y-90180000D02*
X161555000Y-92908900D01*
X201450000Y-112650000D02*
X201450000Y-107821100D01*
X184224600Y-94948100D02*
X184224600Y-95075600D01*
X184224600Y-95075600D02*
X196970100Y-107821100D01*
X196970100Y-107821100D02*
X198250000Y-107821100D01*
X198250000Y-112650000D02*
X198250000Y-107821100D01*
X164095000Y-92908900D02*
X168106700Y-96920600D01*
X168106700Y-96920600D02*
X168106700Y-98823700D01*
X195050000Y-107821100D02*
X192287000Y-105058100D01*
X192287000Y-105058100D02*
X192287000Y-104692700D01*
X195050000Y-112650000D02*
X195050000Y-107821100D01*
X164095000Y-90180000D02*
X164095000Y-92908900D01*
X191850000Y-107821100D02*
X191850000Y-103328500D01*
X191850000Y-103328500D02*
X183784800Y-95263300D01*
X169175000Y-92908900D02*
X169615600Y-92908900D01*
X169615600Y-92908900D02*
X171433400Y-94726700D01*
X169175000Y-90180000D02*
X169175000Y-92908900D01*
X191850000Y-112650000D02*
X191850000Y-107821100D01*
X182083400Y-94082700D02*
X182083400Y-94177400D01*
X182083400Y-94177400D02*
X188650000Y-100744000D01*
X188650000Y-100744000D02*
X188650000Y-112650000D01*
X185450000Y-107821100D02*
X180757000Y-103128100D01*
X180757000Y-103128100D02*
X180757000Y-95434900D01*
X171715000Y-92908900D02*
X171854400Y-93048300D01*
X171854400Y-93048300D02*
X171854400Y-95111500D01*
X171854400Y-95111500D02*
X171819800Y-95146100D01*
X185450000Y-112650000D02*
X185450000Y-107821100D01*
X171715000Y-90180000D02*
X171715000Y-92908900D01*
X182250000Y-107821100D02*
X179481000Y-105052100D01*
X179481000Y-105052100D02*
X179481000Y-97720200D01*
X182250000Y-112650000D02*
X182250000Y-107821100D01*
X182536200Y-93344200D02*
X182217100Y-93663300D01*
X182217100Y-93663300D02*
X181909600Y-93663300D01*
X181909600Y-93663300D02*
X179050000Y-96522900D01*
X179050000Y-96522900D02*
X179050000Y-107821100D01*
X179050000Y-112650000D02*
X179050000Y-107821100D01*
X175850000Y-112650000D02*
X175850000Y-107821100D01*
X153935000Y-90180000D02*
X153935000Y-92908900D01*
X163035800Y-101744900D02*
X154199800Y-92908900D01*
X154199800Y-92908900D02*
X153935000Y-92908900D01*
X175850000Y-107821100D02*
X175180800Y-107821100D01*
X175180800Y-107821100D02*
X175017000Y-107657300D01*
X172650000Y-112650000D02*
X172650000Y-107821100D01*
X156475000Y-90180000D02*
X156475000Y-92908900D01*
X165174400Y-101655600D02*
X165174400Y-99614300D01*
X165174400Y-99614300D02*
X158469000Y-92908900D01*
X158469000Y-92908900D02*
X156475000Y-92908900D01*
X172650000Y-107821100D02*
X172034300Y-107821100D01*
X172034300Y-107821100D02*
X170523500Y-106310300D01*
X169450000Y-101824700D02*
X174003600Y-97271100D01*
X169450000Y-112650000D02*
X169450000Y-101824700D01*
X166250000Y-107821100D02*
X166250000Y-106839300D01*
X166250000Y-106839300D02*
X165374300Y-105963600D01*
X166250000Y-112650000D02*
X166250000Y-107821100D01*
X151395000Y-92908900D02*
X161598500Y-103112400D01*
X161598500Y-103112400D02*
X161598500Y-103334100D01*
X151395000Y-90180000D02*
X151395000Y-92908900D01*
X181875000Y-92908900D02*
X181066100Y-92908900D01*
X181066100Y-92908900D02*
X177123300Y-96851700D01*
X177123300Y-96851700D02*
X173829800Y-96851700D01*
X173829800Y-96851700D02*
X163050000Y-107631500D01*
X163050000Y-107631500D02*
X163050000Y-107821100D01*
X181875000Y-90180000D02*
X181875000Y-92908900D01*
X163050000Y-112650000D02*
X163050000Y-107821100D01*
X180293700Y-93028400D02*
X176873600Y-96448500D01*
X176873600Y-96448500D02*
X173801400Y-96448500D01*
X173801400Y-96448500D02*
X162428800Y-107821100D01*
X162428800Y-107821100D02*
X159850000Y-107821100D01*
X159850000Y-112650000D02*
X159850000Y-107821100D01*
X179335000Y-92908900D02*
X176562400Y-95681500D01*
X176562400Y-95681500D02*
X174136800Y-95681500D01*
X174136800Y-95681500D02*
X162302300Y-107516000D01*
X162302300Y-107516000D02*
X156955100Y-107516000D01*
X156955100Y-107516000D02*
X156650000Y-107821100D01*
X156650000Y-112650000D02*
X156650000Y-107821100D01*
X179335000Y-90180000D02*
X179335000Y-92908900D01*
X178101600Y-92908900D02*
X175634200Y-95376300D01*
X175634200Y-95376300D02*
X173909500Y-95376300D01*
X173909500Y-95376300D02*
X162075000Y-107210800D01*
X162075000Y-107210800D02*
X154060300Y-107210800D01*
X154060300Y-107210800D02*
X153450000Y-107821100D01*
X153450000Y-112650000D02*
X153450000Y-107821100D01*
X176795000Y-92908900D02*
X175310700Y-94393200D01*
X175310700Y-94393200D02*
X174460900Y-94393200D01*
X174460900Y-94393200D02*
X162253400Y-106600700D01*
X162253400Y-106600700D02*
X151470400Y-106600700D01*
X151470400Y-106600700D02*
X150250000Y-107821100D01*
X150250000Y-112650000D02*
X150250000Y-107821100D01*
X176795000Y-90180000D02*
X176795000Y-92908900D01*
X175513500Y-92908900D02*
X162126900Y-106295500D01*
X162126900Y-106295500D02*
X148575600Y-106295500D01*
X148575600Y-106295500D02*
X147050000Y-107821100D01*
X147050000Y-112650000D02*
X147050000Y-107821100D01*
X174255000Y-92908900D02*
X174255000Y-93735800D01*
X174255000Y-93735800D02*
X163330000Y-104660800D01*
X163330000Y-104660800D02*
X149471900Y-104660800D01*
X149471900Y-104660800D02*
X146311600Y-107821100D01*
X146311600Y-107821100D02*
X143850000Y-107821100D01*
X174255000Y-90180000D02*
X174255000Y-92908900D01*
X143850000Y-112650000D02*
X143850000Y-107821100D01*
X173109600Y-92908900D02*
X173109600Y-94449600D01*
X173109600Y-94449600D02*
X163203500Y-104355700D01*
X163203500Y-104355700D02*
X149345400Y-104355700D01*
X149345400Y-104355700D02*
X147412900Y-106288200D01*
X147412900Y-106288200D02*
X142182900Y-106288200D01*
X142182900Y-106288200D02*
X140650000Y-107821100D01*
X140650000Y-112650000D02*
X140650000Y-107821100D01*
X202931700Y-107492500D02*
X202626600Y-107187400D01*
X202626600Y-107187400D02*
X201748700Y-107187400D01*
X201748700Y-107187400D02*
X194895700Y-100334400D01*
X194895700Y-100334400D02*
X190781000Y-100334400D01*
X190781000Y-100334400D02*
X185067000Y-94620400D01*
X185067000Y-94620400D02*
X185067000Y-94512200D01*
X166805000Y-93029300D02*
X166684600Y-92908900D01*
X166684600Y-92908900D02*
X166635000Y-92908900D01*
X166635000Y-90180000D02*
X166635000Y-92908900D01*
X189630000Y-95900000D02*
X189630000Y-94800000D01*
X190780000Y-97050000D02*
X189630000Y-95900000D01*
X186955000Y-94231600D02*
X192721900Y-99998500D01*
X192721900Y-99998500D02*
X195178300Y-99998500D01*
X195178300Y-99998500D02*
X196482600Y-101302800D01*
X186955000Y-94231600D02*
X186848300Y-94231600D01*
X186848300Y-94231600D02*
X186106400Y-94973500D01*
X186955000Y-92908900D02*
X186955000Y-94231600D01*
X186955000Y-90180000D02*
X186955000Y-92908900D01*
X148855000Y-92908900D02*
X150794000Y-92908900D01*
X150794000Y-92908900D02*
X159451900Y-101566800D01*
X148855000Y-90180000D02*
X148855000Y-92908900D01*
X184415000Y-92908900D02*
X182367000Y-92908900D01*
X182367000Y-92908900D02*
X181996000Y-93279900D01*
X181996000Y-93279900D02*
X181861400Y-93279900D01*
X181861400Y-93279900D02*
X173444000Y-101697300D01*
X173444000Y-101697300D02*
X173444000Y-107698200D01*
X184415000Y-90180000D02*
X184415000Y-92908900D01*
X159481100Y-94565300D02*
X164013200Y-99097400D01*
X164013200Y-99097400D02*
X164013200Y-102929100D01*
X172688400Y-99500000D02*
X174500000Y-99500000D01*
X170290000Y-101898400D02*
X172688400Y-99500000D01*
X185060000Y-97910000D02*
X184990000Y-97840000D01*
X185060000Y-99510000D02*
X185060000Y-97910000D01*
X147364800Y-103400100D02*
X143775000Y-99810300D01*
X143775000Y-99810300D02*
X143775000Y-90180000D01*
X146315000Y-92908900D02*
X148009300Y-94603200D01*
X148009300Y-94603200D02*
X148009300Y-104472100D01*
X146315000Y-90180000D02*
X146315000Y-92908900D01*
X147979300Y-105115200D02*
X148855000Y-104239500D01*
X148855000Y-104239500D02*
X148855000Y-93328400D01*
X199655000Y-92908900D02*
X197864500Y-92908900D01*
X197864500Y-92908900D02*
X192390900Y-98382500D01*
X199655000Y-90180000D02*
X199655000Y-92908900D01*
M02*
