M48
; DRILL file {KiCad (5.1.7)-1} date 02/17/23 11:25:36
; FORMAT={-:-/ absolute / inch / decimal}
; #@! TF.CreationDate,2023-02-17T11:25:36-08:00
; #@! TF.GenerationSoftware,Kicad,Pcbnew,(5.1.7)-1
FMAT,2
INCH
T1C0.0100
%
G90
G05
T1
X5.8018Y-4.0709
X5.826Y-4.1384
X5.8271Y-4.1131
X5.8604Y-3.6743
X6.2776Y-3.9987
X6.2788Y-3.723
X6.3621Y-4.0683
X6.4187Y-4.0057
X6.4572Y-4.0523
X6.5029Y-4.0022
X6.5108Y-4.1718
X6.5316Y-3.8667
X6.5671Y-3.6626
X6.5946Y-3.8788
X6.6184Y-3.8907
X6.7043Y-4.0117
X6.7135Y-4.1854
X6.7493Y-3.7294
X6.7646Y-3.7459
X6.8153Y-3.6578
X6.8285Y-4.2401
X6.8505Y-3.8296
X6.8701Y-3.9173
X6.8904Y-4.2385
X6.91Y-3.6578
X7.0119Y-3.6578
X7.0662Y-3.8473
X7.0982Y-3.6625
X7.1164Y-3.7573
X7.1686Y-3.704
X7.1865Y-3.675
X7.2356Y-3.7505
X7.2529Y-3.7381
X7.2831Y-3.852
X7.2858Y-3.9177
X7.2861Y-3.721
X7.2896Y-3.7564
X7.327Y-3.7391
X7.4657Y-3.7323
X7.511Y-3.8209
X7.5704Y-4.1218
X7.5744Y-3.8733
X7.6611Y-3.9956
X7.6726Y-3.8903
X7.7355Y-3.9883
X7.9894Y-4.232
T0
M30
